<?xml version="1.0" encoding="utf-8"?>
<!-- Generator: Adobe Illustrator 21.0.2, SVG Export Plug-In . SVG Version: 6.00 Build 0)  -->
<svg version="1.1" id="圖層_1" xmlns="http://www.w3.org/2000/svg" xmlns:xlink="http://www.w3.org/1999/xlink" x="0px" y="0px"
	 viewBox="0 0 440.4 226.8" style="enable-background:new 0 0 440.4 226.8;" xml:space="preserve">
<style type="text/css">
	.st0{fill:#FFD700;}
	.st1{fill:#FBC200;}
	.st2{fill:#E75300;}
</style>
<g>
	<path class="st2" d="M399.8,13.5c7.2,0,14,2.8,19.2,8c5.1,5.1,8,12,8,19.2v145.5c0,7.2-2.8,14-8,19.2c-5.2,5.1-12,8-19.2,8H40.6
		c-7.2,0-14-2.8-19.2-8c-5.1-5.2-8-12-8-19.2V40.6c0-7.2,2.8-14,8-19.2c5.2-5.2,12-8,19.2-8L399.8,13.5 M399.8,0L40.6,0
		C18.3,0,0,18.3,0,40.6l0,145.5c0,22.3,18.3,40.6,40.6,40.6h359.1c22.3,0,40.6-18.3,40.6-40.6V40.6C440.4,18.3,422.1,0,399.8,0
		L399.8,0z"/>
	<path class="st2" d="M79.6,62.5c0-4-3.4-6.5-9.1-6.5H57.4v13h13.1C76.4,69,79.6,66.5,79.6,62.5z M93,60.2c0,7.9-5.3,12-8.1,13.3
		c3.3,1,11.5,4.3,11.5,15.2c0,11.2-9.1,16.9-23,16.9H44.2V44.2h28.5C86.4,44.2,93,51.7,93,60.2z M83,87c0-3.8-2.8-6.7-9.8-6.7H57.4
		v13.5h15.8C79.2,93.7,83,91.6,83,87z M110.6,44.2h13.5v49.1h30.5v12.3h-44V44.2z M185.9,43.8h13.2l26.3,61.8h-14.9l-5.6-13.8h-25.9
		l-5.6,13.8h-14.2L185.9,43.8z M200.5,80.8L191.9,60l-8.5,20.8H200.5z M294,44.2h13.5V71l23.1-26.8h18.1L321.5,74l28.7,31.6h-18.1
		l-24.6-27.6v27.6H294V44.2z M229.2,121.2h13.5V148l23.1-26.8h18.1l-27.2,29.8l28.7,31.6h-18.1l-24.6-27.6v27.6h-13.5V121.2z
		 M367.8,80.9H352V68.8h15.9V53.1h12.4v15.8h15.9v12.1h-15.9v15.8h-12.4V80.9z M99.9,151.9c0,17.3-13.3,30.7-32.6,30.7H44.2v-61.4
		h23.1C86.6,121.2,99.9,134.6,99.9,151.9z M85.8,151.9c0-10.9-7.5-18.5-18.5-18.5h-9.6v37h9.6C78.3,170.4,85.8,162.7,85.8,151.9z
		 M294,121.2h44v12h-30.6v12.2h27.1v12h-27.1v13.1h31v12H294V121.2z M110.6,121.2h44v12H124v12.2h27.1v12H124v13.1h31v12h-44.4
		V121.2z M401,140.9c0,14.8-10.9,18.9-15.3,19.8l17.8,21.9h-17l-16.1-21h-5v21h-13.5v-61.4h25.9C392.5,121.2,401,129.4,401,140.9z
		 M387.3,141.6c0-5.5-4.3-8.2-10.8-8.2h-11.1v16.3h11.3C383.3,149.7,387.3,146.7,387.3,141.6z M163.4,151.9
		c0-15.9,12.4-31.7,33.2-31.7c10.7,0,18.7,4,19.9,4.6v13c-1.1-0.7-8-5.1-17.8-5.1c-13.4,0-21.2,8.9-21.2,19.3
		c0,11.4,8.5,19.3,20.4,19.3c8.2,0,13.9-4,15.3-4.9l6.5,10c-2.6,2.1-9.5,7.4-23.7,7.4C176.8,183.6,163.4,168.9,163.4,151.9z
		 M228.3,74.9c0-15.9,12.4-31.7,33.2-31.7c10.7,0,18.7,4,19.9,4.6v13c-1.1-0.7-8-5.1-17.8-5.1c-13.4,0-21.2,8.9-21.2,19.3
		c0,11.4,8.5,19.3,20.4,19.3c8.2,0,13.9-4,15.3-4.9l6.5,10c-2.6,2.1-9.5,7.4-23.8,7.4C241.6,106.6,228.3,92,228.3,74.9z"/>
	<g>
		<path class="st2" d="M437.6,214.8H435v-1.3h6.7v1.3h-2.6v6.9h-1.5V214.8z"/>
	</g>
</g>
</svg>
