<?xml version="1.0" encoding="utf-8"?>
<!-- Generator: Adobe Illustrator 21.0.2, SVG Export Plug-In . SVG Version: 6.00 Build 0)  -->
<svg version="1.1" id="圖層_1" xmlns="http://www.w3.org/2000/svg" xmlns:xlink="http://www.w3.org/1999/xlink" x="0px" y="0px"
	 viewBox="0 0 176.1 195.1" style="enable-background:new 0 0 176.1 195.1;" xml:space="preserve">
<style type="text/css">
	.st0{fill:#FFD700;}
	.st1{fill:#FBC200;}
	.st2{fill:#E75300;}
	.st3{fill:#F8B62D;}
</style>
<g>
	<path class="st0" d="M-1402.7-787.1c11.2,6.1,28.2,11.9,48.2,11.9c13.9,0,29.8-2.7,29.8-15.3c0-29.2-82.6-12.5-82.6-72.1
		c0-39.4,36.4-49.5,69.3-49.5c21.3,0,37.5,3.6,50.1,7.5l-4.1,35.2c-11.5-4.8-26.1-9.6-42.5-9.6c-11,0-28.1,0.7-28.1,15
		c0,25.8,83,12.5,83,69.7c0,42.5-38.5,52.2-74.9,52.2c-22,0-42.3-4.4-53.2-8L-1402.7-787.1z"/>
	<polygon class="st0" points="-1130.7,-908.9 -1268.3,-908.9 -1268.3,-875.6 -1221.3,-875.6 -1221.3,-745.1 -1177.6,-745.1 
		-1177.6,-875.6 -1130.7,-875.6 	"/>
	<polygon class="st0" points="-357.5,-908.9 -389.2,-843.2 -421.3,-908.9 -471.5,-908.9 -411,-806.8 -411,-745.1 -367.3,-745.1 
		-367.3,-806.8 -307.3,-908.9 	"/>
	<polygon class="st0" points="-942.5,-908.9 -942.5,-745.1 -900.5,-745.1 -900.5,-833.4 -829.2,-745.1 -793.5,-745.1 -793.5,-769.8 
		-906.6,-908.9 	"/>
	<polygon class="st0" points="-793.5,-826 -793.5,-908.9 -860.4,-908.9 	"/>
	<polygon class="st0" points="-566.1,-811.4 -497.3,-811.4 -497.3,-844 -566.1,-844 -566.1,-876.7 -490.5,-876.7 -490.5,-908.9 
		-610.9,-908.9 -610.9,-745.1 -487.9,-745.1 -487.9,-777.8 -566.1,-777.8 	"/>
	<polygon class="st0" points="-708.9,-908.9 -753.7,-908.9 -753.7,-745.1 -637.3,-745.1 -637.3,-778.8 -708.9,-778.8 	"/>
	<path class="st0" d="M-1012.5-745.1h46l-60.9-163.8h-50.7l-60.1,163.8h42.6l11.1-32.7h61.3L-1012.5-745.1z M-1074.5-808.8
		l21.2-65.7l20.4,65.7H-1074.5z"/>
	<g>
		<path class="st0" d="M-333.4-776.9c8.9,0,16.1,6.9,16.1,15.8c0,8.9-7.1,15.9-16.2,15.9c-9.1,0-16.3-7-16.3-15.9
			C-349.7-770-342.5-776.9-333.4-776.9L-333.4-776.9z M-333.6-773.8c-6.8,0-12.1,5.7-12.1,12.6c0,7,5.3,12.6,12.3,12.6
			c6.8,0.1,12-5.6,12-12.5c0-7-5.2-12.7-12.1-12.7H-333.6z M-336-753h-3.6v-15.8c1.4-0.2,3.5-0.5,6.1-0.5c3,0,4.3,0.5,5.4,1.3
			c1,0.7,1.6,1.8,1.6,3.4c0,1.9-1.4,3.2-3.3,3.7v0.2c1.6,0.5,2.3,1.7,2.8,3.9c0.5,2.4,0.9,3.3,1.2,3.8h-3.8
			c-0.5-0.6-0.7-1.9-1.2-3.8c-0.3-1.6-1.2-2.4-3.3-2.4h-1.7V-753z M-335.9-761.8h1.7c2,0,3.7-0.7,3.7-2.3c0-1.5-1.1-2.4-3.4-2.4
			c-1,0-1.7,0.1-2,0.2V-761.8z"/>
	</g>
</g>
<g>
	<rect x="-111.7" y="-926.2" class="st1" width="820.5" height="15.6"/>
	<rect x="-111.7" y="-743.3" class="st1" width="820.5" height="15.5"/>
	<polygon class="st1" points="584.3,-902.9 708.8,-902.9 708.8,-860 675.1,-860 675.1,-751.5 618,-751.5 618,-860 584.3,-860 	"/>
	<polygon class="st1" points="498.8,-902.9 498.8,-751.5 602.5,-751.5 602.5,-796.6 555.8,-796.6 555.8,-902.9 	"/>
	<path class="st1" d="M377.6-902.9h62.7l48,151.4h-55.8l-5.7-23h-35l-5.2,23h-58.3L377.6-902.9z M399.6-808.2H419l-9.5-44.1
		L399.6-808.2z"/>
	<polyline class="st1" points="355.7,-902.9 300,-902.9 284.4,-829 267.6,-902.9 218.3,-902.9 202.4,-829 187.2,-902.9 
		131.5,-902.9 173.1,-751.5 224.8,-751.5 242.2,-825.3 260,-751.5 313,-751.5 355.7,-902.9 	"/>
	<polygon class="st1" points="46.5,-870.5 129.6,-870.5 129.6,-839.3 89.4,-839.3 89.4,-826.4 124.4,-826.4 124.4,-795.2 
		89.4,-795.2 89.4,-782.3 129.6,-782.3 129.6,-751.5 46.5,-751.5 	"/>
	<path class="st1" d="M-111.7-751.5v-151.4h70.9c41.9,0,75.2,22.8,75.2,76c0,51.8-32.3,75.4-75.5,75.4H-111.7z M-53.1-796.8
		c18,0,29.8-7.6,29.8-30.5c0-25.3-11.8-32-29.7-32h-4.6v62.6H-53.1z"/>
	<path class="st1" d="M682.8-764.1c0-7.1,5.8-12.4,12.6-12.4c6.8,0,12.5,5.2,12.5,12.4c0,7.2-5.8,12.4-12.5,12.4
		C688.6-751.6,682.8-756.9,682.8-764.1z M695.4-753.7c5.6,0,10-4.4,10-10.4c0-5.9-4.4-10.3-10-10.3c-5.7,0-10.1,4.4-10.1,10.3
		C685.3-758.1,689.7-753.7,695.4-753.7z M693-762.5h2l2.7,4.6h3.1l-3.2-4.8c2.1-0.3,3.6-1.6,3.6-4.2c0-2.2-1.7-3.8-5.2-3.8h-5.5
		v12.7h2.4V-762.5z M693-764.6v-4.1h2.7c1.5,0,3.3,0.1,3.3,2c0,2.2-1.4,2.1-3.3,2.1H693z"/>
	<line class="st1" x1="-112.9" y1="-926.2" x2="101.3" y2="-926.2"/>
</g>
<g>
	<path class="st2" d="M1340-926.9c7.2,0,14,2.8,19.2,8c5.1,5.1,8,12,8,19.2v145.5c0,7.2-2.8,14-8,19.2c-5.2,5.1-12,8-19.2,8H980.9
		c-7.2,0-14-2.8-19.2-8c-5.1-5.2-8-12-8-19.2v-145.5c0-7.2,2.8-14,8-19.2c5.2-5.2,12-8,19.2-8H1340 M1340-940.4H980.9
		c-22.3,0-40.6,18.3-40.6,40.6v145.5c0,22.3,18.3,40.6,40.6,40.6H1340c22.3,0,40.6-18.3,40.6-40.6v-145.5
		C1380.7-922.1,1362.4-940.4,1340-940.4L1340-940.4z"/>
	<path class="st2" d="M1019.8-877.9c0-4-3.4-6.5-9.1-6.5h-13.1v13h13.1C1016.7-871.4,1019.8-873.9,1019.8-877.9z M1033.3-880.2
		c0,7.9-5.3,12-8.1,13.3c3.3,1,11.5,4.3,11.5,15.2c0,11.2-9.1,16.9-23,16.9h-29.2v-61.4h28.5
		C1026.7-896.2,1033.3-888.7,1033.3-880.2z M1023.3-853.4c0-3.8-2.8-6.7-9.8-6.7h-15.8v13.5h15.8
		C1019.4-846.7,1023.3-848.8,1023.3-853.4z M1050.9-896.2h13.5v49.1h30.5v12.3h-44V-896.2z M1126.2-896.6h13.2l26.3,61.8h-14.9
		l-5.6-13.8h-25.9l-5.6,13.8h-14.2L1126.2-896.6z M1140.8-859.6l-8.5-20.8l-8.5,20.8H1140.8z M1234.3-896.2h13.5v26.8l23.1-26.8
		h18.1l-27.2,29.8l28.7,31.6h-18.1l-24.6-27.6v27.6h-13.5V-896.2z M1169.5-819.2h13.5v26.8l23.1-26.8h18.1l-27.2,29.8l28.7,31.6
		h-18.1l-24.6-27.6v27.6h-13.5V-819.2z M1308.1-859.4h-15.9v-12.1h15.9v-15.8h12.4v15.8h15.9v12.1h-15.9v15.8h-12.4V-859.4z
		 M1040.2-788.5c0,17.3-13.3,30.7-32.6,30.7h-23.1v-61.4h23.1C1026.9-819.2,1040.2-805.8,1040.2-788.5z M1026.1-788.5
		c0-10.9-7.5-18.5-18.5-18.5H998v37h9.6C1018.6-770,1026.1-777.7,1026.1-788.5z M1234.3-819.2h44v12h-30.6v12.2h27.1v12h-27.1v13.1
		h31v12h-44.4V-819.2z M1050.9-819.2h44v12h-30.6v12.2h27.1v12h-27.1v13.1h31v12h-44.4V-819.2z M1341.3-799.5
		c0,14.8-10.9,18.9-15.3,19.8l17.8,21.9h-17l-16.1-21h-5v21h-13.5v-61.4h25.9C1332.8-819.2,1341.3-811,1341.3-799.5z M1327.6-798.8
		c0-5.5-4.3-8.2-10.8-8.2h-11.1v16.3h11.3C1323.6-790.7,1327.6-793.7,1327.6-798.8z M1103.7-788.5c0-15.9,12.4-31.7,33.2-31.7
		c10.7,0,18.7,4,19.9,4.6v13c-1.1-0.7-8-5.1-17.8-5.1c-13.4,0-21.2,8.9-21.2,19.3c0,11.4,8.5,19.3,20.4,19.3c8.2,0,13.9-4,15.3-4.9
		l6.5,10c-2.6,2.1-9.5,7.4-23.8,7.4C1117.1-756.8,1103.7-771.5,1103.7-788.5z M1168.6-865.5c0-15.9,12.4-31.7,33.2-31.7
		c10.7,0,18.7,4,19.9,4.6v13c-1.1-0.7-8-5.1-17.8-5.1c-13.4,0-21.2,8.9-21.2,19.3c0,11.4,8.5,19.3,20.4,19.3c8.2,0,13.9-4,15.3-4.9
		l6.5,10c-2.6,2.1-9.5,7.4-23.8,7.4C1181.9-833.8,1168.6-848.4,1168.6-865.5z"/>
	<g>
		<path class="st2" d="M1377.9-725.6h-2.6v-1.3h6.7v1.3h-2.6v6.9h-1.5V-725.6z"/>
		<path class="st2" d="M1383.5-727h1.5l2.5,3.9l2.5-3.9h1.5v8.2h-1.4v-5.9l-2.6,3.9h0l-2.6-3.9v5.9h-1.4V-727z"/>
	</g>
</g>
<g>
	<circle class="st3" cx="88" cy="88" r="88"/>
	<path class="st3" d="M142.4,127.1c0,0-38.4,34.1-8.2,65c1.3,1.4-0.1,3.6-1.9,2.9c-12.9-5.3-35.7-18.2-31.9-41.7
		C104.6,126.7,142.4,127.1,142.4,127.1z"/>
</g>
<g>
	<path class="st3" d="M57.8,116.7V65.2h6.8v21.2h26.8V65.2h6.8v51.5h-6.8V92.4H64.6v24.3H57.8z"/>
	<path class="st3" d="M110.8,116.7V65.2h6.8v51.5H110.8z"/>
</g>
</svg>
