<?xml version="1.0" encoding="utf-8"?>
<!-- Generator: Adobe Illustrator 21.0.2, SVG Export Plug-In . SVG Version: 6.00 Build 0)  -->
<svg version="1.1" id="圖層_1" xmlns="http://www.w3.org/2000/svg" xmlns:xlink="http://www.w3.org/1999/xlink" x="0px" y="0px"
	 viewBox="0 0 1100.5 170.1" style="enable-background:new 0 0 1100.5 170.1;" xml:space="preserve">
<style type="text/css">
	.st0{fill:#FFD700;}
	.st1{fill:#FBC200;}
	.st2{fill:#E75300;}
</style>
<g>
	<path class="st0" d="M5,125c11.2,6.1,28.2,11.9,48.2,11.9c13.9,0,29.8-2.7,29.8-15.3c0-29.2-82.6-12.5-82.6-72.1
		C0.4,10.1,36.7,0,69.6,0c21.3,0,37.5,3.6,50.1,7.5l-4.1,35.2c-11.5-4.8-26.1-9.6-42.5-9.6c-11,0-28.1,0.7-28.1,15
		c0,25.8,83,12.5,83,69.7c0,42.5-38.5,52.2-74.9,52.2c-22,0-42.3-4.4-53.2-8L5,125z"/>
	<polygon class="st0" points="277.1,3.2 139.5,3.2 139.5,36.4 186.5,36.4 186.5,166.9 230.1,166.9 230.1,36.4 277.1,36.4 	"/>
	<polygon class="st0" points="1050.2,3.2 1018.6,68.8 986.4,3.2 936.2,3.2 996.7,105.2 996.7,166.9 1040.4,166.9 1040.4,105.2 
		1100.5,3.2 	"/>
	<polygon class="st0" points="465.2,3.2 465.2,166.9 507.2,166.9 507.2,78.7 578.5,166.9 614.2,166.9 614.2,142.3 501.1,3.2 	"/>
	<polygon class="st0" points="614.2,86.1 614.2,3.2 547.3,3.2 	"/>
	<polygon class="st0" points="841.6,100.7 910.4,100.7 910.4,68 841.6,68 841.6,35.4 917.2,35.4 917.2,3.2 796.8,3.2 796.8,166.9 
		919.8,166.9 919.8,134.3 841.6,134.3 	"/>
	<polygon class="st0" points="698.8,3.2 654.1,3.2 654.1,166.9 770.4,166.9 770.4,133.2 698.8,133.2 	"/>
	<path class="st0" d="M395.3,166.9h46L380.3,3.2h-50.7l-60.1,163.8h42.6l11.1-32.7h61.3L395.3,166.9z M333.2,103.2l21.2-65.7
		l20.4,65.7H333.2z"/>
	<g>
		<path class="st0" d="M1074.4,135.1c8.9,0,16.1,6.9,16.1,15.8c0,8.9-7.1,15.9-16.2,15.9c-9.1,0-16.3-7-16.3-15.9
			C1058,142,1065.2,135.1,1074.4,135.1L1074.4,135.1z M1074.2,138.3c-6.8,0-12.1,5.7-12.1,12.6c0,7,5.3,12.6,12.3,12.6
			c6.8,0.1,12-5.6,12-12.5c0-7-5.2-12.7-12.1-12.7H1074.2z M1071.8,159.1h-3.6v-15.8c1.4-0.2,3.5-0.5,6.1-0.5c3,0,4.3,0.5,5.4,1.3
			c1,0.7,1.6,1.8,1.6,3.4c0,1.9-1.4,3.2-3.3,3.7v0.2c1.6,0.5,2.3,1.7,2.8,3.9c0.5,2.4,0.9,3.3,1.2,3.8h-3.8
			c-0.5-0.6-0.7-1.9-1.2-3.8c-0.3-1.6-1.2-2.4-3.3-2.4h-1.7V159.1z M1071.9,150.2h1.7c2,0,3.7-0.7,3.7-2.3c0-1.5-1.1-2.4-3.4-2.4
			c-1,0-1.7,0.1-2,0.2V150.2z"/>
	</g>
</g>
</svg>
