<?xml version="1.0" encoding="utf-8"?>
<!-- Generator: Adobe Illustrator 21.0.2, SVG Export Plug-In . SVG Version: 6.00 Build 0)  -->
<svg version="1.1" id="圖層_1" xmlns="http://www.w3.org/2000/svg" xmlns:xlink="http://www.w3.org/1999/xlink" x="0px" y="0px"
	 viewBox="0 0 150 150" style="enable-background:new 0 0 150 150;" xml:space="preserve">
<style type="text/css">
	.st0{fill:url(#SVGID_1_);}
</style>
<radialGradient id="SVGID_1_" cx="75" cy="75" r="46.8017" gradientUnits="userSpaceOnUse">
	<stop  offset="0" style="stop-color:#FFA06A"/>
	<stop  offset="7.166407e-02" style="stop-color:#FAA06D"/>
	<stop  offset="0.1524" style="stop-color:#ED9F76"/>
	<stop  offset="0.2375" style="stop-color:#D69F84"/>
	<stop  offset="0.3256" style="stop-color:#B79E98"/>
	<stop  offset="0.4162" style="stop-color:#8E9DB2"/>
	<stop  offset="0.5087" style="stop-color:#5C9BD2"/>
	<stop  offset="0.6012" style="stop-color:#2399F6"/>
	<stop  offset="0.6213" style="stop-color:#1599FF"/>
	<stop  offset="0.6624" style="stop-color:#1C9CFF"/>
	<stop  offset="0.7205" style="stop-color:#2EA4FF"/>
	<stop  offset="0.7887" style="stop-color:#4CB1FF"/>
	<stop  offset="0.8646" style="stop-color:#77C3FF"/>
	<stop  offset="0.9458" style="stop-color:#ACDBFF"/>
	<stop  offset="1" style="stop-color:#D4ECFF"/>
</radialGradient>
<path class="st0" d="M71.1,80.1c-0.1-0.9,0.5-1.7,1.4-1.8l7.3-0.9c0.9-0.1,1.7,0.3,1.8,1.2c0.1,0.9-0.5,1.4-1.4,1.6h-0.1l-7.3,1.1
	C72,81.4,71.3,80.9,71.1,80.1z M92.3,92.8c-0.2,0.2-0.4,0.4-0.6,0.6c-2.8,3-5.4,5.8-9.4,6.5c-0.6,0.1-1.1,0.2-1.8,0.2
	c-3.8,0.1-8-0.6-11.2-2.9c-4.2-2.9-5.1-7.6-5.5-12.4c-0.9,1.2-1.8,2.3-2.7,3.5c-0.3,0.4-0.6,0.8-1.1,1c-0.9,0.4-2-0.2-2.2-1.2
	c-0.1-0.8,0.4-1.6,1-2.3c1.2-1.5,2.3-2.9,3.5-4.4c-3.1-3.5-3.8-8.8-1.9-13c-2.1-2.8-3-6.5-2.4-9.9c0.2-1.1,0.5-2.2,1.2-3.1
	s1.7-1.6,2.8-1.7c2-0.1,3.7,1.7,4.5,3.5c1.5,3.3,1.5,7.2,0.1,10.5c2.9,3.6,3.4,9,1.2,13.1c2.7,1.7,4.7,4.5,7.7,5.3
	c1.6,0.4,3.3,0.2,4.8-0.4c2.3-0.9,4.3-2.8,5.2-5.1c0.9-2.4,0.6-5.2-0.9-7.2c-2.3-3.3-7.2-4.2-9-7.8c-1-1.9-0.8-4.2-0.4-6.3
	c0.4-1.9,1-3.8,1.8-5.6c0.5-1,1.4-2.2,2.4-1.9c0.7,0.2,1.1,1.1,1.1,1.9c-0.1,0.8-0.4,1.5-0.8,2.2c-0.8,1.8-1.3,3.7-1.5,5.7
	c-0.1,1.1,0,2.2,0.5,3.1c0.4,0.6,1.1,1.1,1.7,1.5c2.6,1.7,5.3,3.3,7,5.8c1.9,2.8,2.3,6.6,1.1,9.9c-1.2,3.3-3.9,5.8-7.1,7.1
	c-2.1,0.8-4.5,1.1-6.7,0.6c-3-0.7-5.4-2.9-7.7-4.9c0.4,0.4,0.3,2.9,0.4,3.5c0.3,2.9,2,5.4,4.4,7.1c2.6,1.8,5.5,1.9,8.6,1.9
	c3.6-0.1,5.9-2.5,8.8-5.7c0.2-0.2,0.4-0.4,0.6-0.7c5.2-5.5,3.6-13.7,2.6-17c-0.8-2.9-1.7-5-3.8-6.8c-0.3-0.3-0.8-0.6-1.3-0.9
	c-1.1-0.7-2.3-1.4-3-2.8c-0.4-0.8-0.1-1.8,0.7-2.2c0.8-0.4,1.8-0.1,2.2,0.7c0.3,0.6,1,1.1,1.9,1.6c0.6,0.4,1.1,0.7,1.7,1.2
	c2.6,2.3,3.8,5,4.8,8.4C98,80.7,96.8,88,92.3,92.8z M62.4,65.5c0.5,0.8,0.9,1,1,1s0.4-0.3,0.7-1.1c0.3-1,0.4-2.4,0.3-3.8
	c-0.2-1.4-0.6-2.7-1.1-3.6c-0.5-0.8-0.9-1-1-1c-0.1,0-0.4,0.3-0.7,1.1c-0.3,1-0.4,2.4-0.3,3.8C61.5,63.3,61.9,64.6,62.4,65.5z
	 M63.9,78.2c0.4,0.6,0.7,0.9,0.9,0.9c0.1,0,0.1,0,0.2,0c0.1-0.1,0.4-0.4,0.6-1.1c0.3-1,0.4-2.4,0.3-3.7c-0.2-1.4-0.6-2.7-1.1-3.6
	c-0.5-0.8-0.9-0.9-1-0.9l0,0c-0.1,0-0.4,0.3-0.7,1.1c-0.3,1-0.4,2.4-0.3,3.7C62.9,76,63.3,77.3,63.9,78.2z M85,48.3
	c0.4-0.8,0.1-1.8-0.7-2.2c-6.4-3.2-13.4-5.6-21.5-1.7c-3.8,1.8-6.1,3.7-7.1,5.8c-0.4,0.8,0,1.8,0.8,2.2c0.8,0.4,1.8,0,2.2-0.8
	c0.3-0.8,1.5-2.3,5.5-4.2c6.5-3.1,12.1-1.5,18.6,1.7c0.3,0.2,0.7,0.2,1,0.1C84.3,49.1,84.8,48.8,85,48.3z M101.3,94.2
	c1.3-3.2,2.1-7,2.4-10.9c0.3-3.9,0-8-0.7-11.8c-1.7-8.6-5.8-15.6-11.5-19.7c-0.7-0.5-1.8-0.4-2.3,0.4c-0.5,0.7-0.4,1.8,0.4,2.3
	c5,3.6,8.6,9.9,10.2,17.7c1.4,7.2,0.9,15-1.5,20.8c-0.3,0.8,0.1,1.8,0.9,2.1c0.3,0.1,0.6,0.1,0.9,0.1
	C100.6,95.1,101.1,94.8,101.3,94.2z M60.6,100.7c0.7-0.6,0.8-1.6,0.2-2.3c-8.5-10.2-12-22.7-9.7-34.2c0.2-1.1,0.5-2.3,2.5-5.9
	c0.5-0.8,0.2-1.8-0.6-2.2c-0.8-0.5-1.8-0.2-2.2,0.6c-2.1,3.7-2.6,5.2-2.9,6.9c-1.3,6.5-1,13.1,1,19.7c1.8,6.1,5.1,12.1,9.4,17.3
	c0.4,0.5,1,0.7,1.5,0.6C60.1,101,60.3,100.9,60.6,100.7z M97.7,99.5c0.5-0.7,0.4-1.8-0.4-2.3c-0.7-0.5-1.8-0.4-2.3,0.4
	c-4.3,5.9-9.8,7.7-13.6,8.1c-5.4,0.6-11.2-1-14.8-4.1c-0.7-0.6-1.7-0.5-2.3,0.2c-0.6,0.7-0.5,1.7,0.2,2.3c4.2,3.7,11,5.6,17.3,4.9
	c0.4,0,0.9-0.1,1.4-0.2C87.5,108.1,93.2,105.7,97.7,99.5z M43.8,66.2c0.3-6,1.2-11.3,4.9-17.1c5.1-8,16-15.4,30-10.2
	c0.8,0.3,1.8-0.1,2.1-1c0.3-0.8-0.1-1.8-1-2.1c-3.7-1.4-7.4-2-11-2c-3.3,0.1-6.5,0.8-9.6,2c-5.3,2.5-10.1,6.5-13.3,11.6
	c-3.5,5.5-5.1,10.9-5.4,18.7c0,0.9,0.7,1.7,1.6,1.7c0.1,0,0.2,0,0.4,0C43.2,67.6,43.7,67,43.8,66.2z M110.2,87.2
	c0.7-6.6,0.2-13.6-1.6-20.2c-1.8-6.7-5-13-9-18.1c-3.3-4.1-5.3-6.2-9.6-8.4c-0.1,0-0.1-0.1-0.2-0.1l0,0c-0.1-0.1-0.2-0.1-0.4-0.2
	c-0.5-0.3-1.3-0.7-2.7-1.5c-0.8-0.4-1.8-0.2-2.2,0.6c-0.4,0.8-0.2,1.8,0.6,2.2c2.2,1.2,3,1.7,3.2,1.8l0,0l0.1,0.1
	c0.1,0,0.1,0.1,0.2,0.1c3.9,2.1,5.6,3.9,8.5,7.5c7.7,9.7,11.4,23.1,10,35.9c-0.1,0.9,0.5,1.7,1.4,1.8c0.2,0,0.3,0,0.5,0
	C109.5,88.5,110.1,87.9,110.2,87.2z M78.8,115.2c0.1-0.9-0.5-1.7-1.4-1.8c-7.3-0.9-13-3.3-18.2-7.6c-4-3.4-8-8.1-10.6-12.6
	C46,88.9,43.9,81.4,42.9,73c-0.1-0.9-0.9-1.5-1.8-1.4c-0.9,0.1-1.5,0.9-1.4,1.8c1.1,8.8,3.3,16.7,6,21.3c2.8,4.9,7,9.8,11.4,13.4
	c5.7,4.7,12,7.4,19.9,8.3c0.2,0,0.3,0,0.5,0C78.2,116.5,78.8,115.9,78.8,115.2z M97,112.6c2.6-2,5.2-4.6,7.1-7.3
	c2.2-3.2,3.6-6.4,4.1-9.5c0.1-0.9-0.5-1.7-1.4-1.9c-0.9-0.1-1.7,0.5-1.9,1.4C104,101.2,99,107,95,110c-1.6,1.2-4.4,2.8-10.5,3.3
	c-0.9,0.1-1.6,0.9-1.5,1.8s0.9,1.6,1.8,1.5c1.2-0.1,2.3-0.2,3.3-0.4C92.9,115.3,95.4,113.7,97,112.6z M107.7,47.5
	c0.7-0.5,0.9-1.5,0.4-2.3c-2.5-3.6-5.9-7.1-10-10.1c-4.1-3.1-8.7-5.6-13.4-7.3c-10.9-4-21.1-3.6-28.9,1.1c-0.8,0.5-1,1.5-0.5,2.3
	c0.5,0.8,1.5,1,2.3,0.5c15.8-9.7,39.4,2.9,48,15.4c0.4,0.5,1,0.8,1.6,0.7C107.3,47.8,107.5,47.7,107.7,47.5z M107.7,114.3
	c4-5.1,7-11.1,8.7-18.1c1.6-6.2,2.2-12.9,1.8-19.9c-0.4-7.3-1-12.5-6-23c-0.4-0.8-1.4-1.2-2.2-0.8c-0.8,0.4-1.2,1.4-0.8,2.2
	c4.8,10.2,5.3,14.9,5.7,21.8c0.5,10-0.7,24.3-9.8,35.8c-0.6,0.7-0.4,1.7,0.3,2.3c0.4,0.3,0.9,0.4,1.3,0.3
	C107,114.9,107.4,114.7,107.7,114.3z M51.2,110.8c0.7-0.6,0.8-1.6,0.2-2.3c-8.2-9.8-13.1-19-15.3-28.2c-2.4-10.4-1.1-21.3,3.5-30.1
	c1.9-3.6,5.1-8.6,9.6-11.9c0.7-0.5,0.9-1.6,0.4-2.3c-0.5-0.7-1.6-0.9-2.3-0.4c-5,3.6-8.5,9.1-10.6,13c-2.5,4.8-4.1,10.1-4.7,15.9
	c-0.6,5.5-0.3,11.2,1,16.5c1.2,5.2,3.3,10.6,6.3,15.8c2.5,4.5,5.7,9,9.7,13.7c0.4,0.5,1,0.7,1.5,0.6C50.7,111.1,51,111,51.2,110.8z
	 M90,123.5c4.3-1.2,8.2-3.1,11.5-5.7c0.7-0.5,0.9-1.6,0.3-2.3c-0.5-0.7-1.6-0.9-2.3-0.3c-12.7,9.5-32.7,8.5-43.7-2.1
	c-0.6-0.6-1.7-0.6-2.3,0s-0.6,1.7,0,2.3c6,5.8,14.3,9.2,23.5,9.6c3,0.1,5.9-0.1,8.8-0.6C87.3,124.2,88.6,123.9,90,123.5z"/>
</svg>
