<?xml version="1.0" encoding="utf-8"?>
<!-- Generator: Adobe Illustrator 21.0.2, SVG Export Plug-In . SVG Version: 6.00 Build 0)  -->
<svg version="1.1" id="圖層_1" xmlns="http://www.w3.org/2000/svg" xmlns:xlink="http://www.w3.org/1999/xlink" x="0px" y="0px"
	 viewBox="0 0 716 132" style="enable-background:new 0 0 716 132;" xml:space="preserve">
<style type="text/css">
	.st0{fill:#FDF7B8;}
	.st1{font-family:'DFBnagBang-W5-WIN-BF';}
	.st2{font-size:14px;}
	.st3{fill:url(#SVGID_1_);}
	.st4{fill:#4D4D4D;}
	.st5{fill:none;stroke:#4D4D4D;stroke-linecap:round;stroke-miterlimit:10;}
</style>
<g>
	
		<image style="overflow:visible;opacity:0.3;" width="191" height="102" xlink:href="F0A0F514.png"  transform="matrix(1 0 0 1 50.4962 17.4962)">
	</image>
	<g>
		<path class="st0" d="M223.9,106.3H61.8c-2.8,0-5-2.2-5-5V28.8c0-2.8,2.2-5,5-5h162.1c2.8,0,5,2.2,5,5v72.5
			C228.9,104,226.6,106.3,223.9,106.3z"/>
	</g>
</g>
<text transform="matrix(1 0 0 1 121.826 69.2165)" class="st1 st2">unread</text>
<g>
	<g>
		<g>
			
				<image style="overflow:visible;opacity:0.3;" width="191" height="102" xlink:href="F0A0F517.png"  transform="matrix(1 0 0 1 299.4962 17.4962)">
			</image>
			<g>
				<path class="st0" d="M305.2,28.8v72.5c0,2.8,2.2,5,5,5h162.1c2.8,0,5-2.2,5-5V45l-21.3-21.3H310.2
					C307.5,23.8,305.2,26,305.2,28.8z"/>
			</g>
		</g>
		<linearGradient id="SVGID_1_" gradientUnits="userSpaceOnUse" x1="457.5338" y1="43.5851" x2="466.7173" y2="34.4016">
			<stop  offset="0" style="stop-color:#F1F0BF"/>
			<stop  offset="0.1063" style="stop-color:#F1EFB8"/>
			<stop  offset="0.2641" style="stop-color:#EFEDA4"/>
			<stop  offset="0.4541" style="stop-color:#EEE983"/>
			<stop  offset="0.6689" style="stop-color:#EBE455"/>
			<stop  offset="0.9017" style="stop-color:#E8DD1B"/>
			<stop  offset="1" style="stop-color:#E6DA00"/>
		</linearGradient>
		<path class="st3" d="M477.4,45l-21.3-21.3V40c0,2.8,2.2,5,5,5H477.4z"/>
	</g>
	<text transform="matrix(1 0 0 1 377.3034 69.2165)" class="st1 st2">read</text>
</g>
<g>
	<g>
		<path class="st4" d="M626.2,41.5c0.2-0.8,0.4-1.6,0.6-2.4c0.2-0.8,0.4-1.6,0.7-2.4c0.2-0.8,0.3-1.7,0.8-2.4c0.4-0.7,1-1.4,1.8-2
			c0.1,0,0.1,0,0.2,0c0,0,0,0,0,0c0.2,1,0.1,1.8-0.1,2.6c-0.2,0.8-0.7,1.5-1.1,2.2c-0.4,0.7-0.8,1.5-1.2,2.2
			c-0.4,0.7-0.9,1.4-1.3,2.1c0,0-0.1,0.1-0.1,0C626.2,41.6,626.2,41.5,626.2,41.5z"/>
	</g>
	<g>
		<path class="st4" d="M649.4,53.2c0.5-0.7,1-1.3,1.6-2c0.5-0.6,1.1-1.3,1.6-1.9c0.6-0.6,1-1.4,1.7-1.8c0.7-0.5,1.5-0.9,2.4-1
			c0.1,0,0.1,0,0.1,0.1c0,0,0,0,0,0c-0.2,1-0.7,1.7-1.2,2.3c-0.5,0.7-1.3,1-2,1.5c-0.7,0.5-1.3,1-2,1.4c-0.7,0.5-1.4,0.9-2.1,1.4
			c0,0-0.1,0-0.1,0C649.4,53.3,649.4,53.2,649.4,53.2z"/>
	</g>
	<g>
		<path class="st4" d="M650.2,74.8c1,0,2.1,0.1,3.1,0.1c1,0.1,2,0.1,3.1,0.2c1,0.1,2.1,0,3,0.3c1,0.3,1.9,0.7,2.9,1.4
			c0,0,0.1,0.1,0,0.2c0,0,0,0-0.1,0c-1.1,0.4-2.1,0.4-3.2,0.4c-1,0-2-0.5-3-0.7c-1-0.3-2-0.5-3-0.8c-1-0.3-2-0.6-2.9-0.9
			C650.1,74.9,650.1,74.9,650.2,74.8C650.1,74.8,650.2,74.8,650.2,74.8z"/>
	</g>
	<g>
		<path class="st4" d="M638.4,91.3c0.6,0.7,1.1,1.4,1.7,2.1c0.5,0.7,1.1,1.4,1.6,2.2c0.5,0.7,1.2,1.4,1.5,2.2
			c0.3,0.8,0.6,1.7,0.5,2.8c0,0.1-0.1,0.1-0.1,0.1c0,0,0,0-0.1,0c-0.9-0.5-1.5-1.2-2.1-1.9c-0.6-0.7-0.8-1.6-1.2-2.4
			c-0.4-0.8-0.7-1.6-1.1-2.5c-0.3-0.8-0.7-1.7-1-2.5c0-0.1,0-0.1,0.1-0.1C638.3,91.3,638.4,91.3,638.4,91.3z"/>
	</g>
	<g>
		<path class="st4" d="M592.7,89.4c-0.6,0.8-1.3,1.6-1.9,2.5c-0.6,0.8-1.3,1.6-2,2.4c-0.7,0.8-1.2,1.7-2,2.3
			c-0.8,0.6-1.7,1.2-2.8,1.5c-0.1,0-0.1,0-0.1-0.1c0,0,0,0,0-0.1c0.3-1.1,0.9-2,1.5-2.8c0.6-0.8,1.5-1.4,2.3-2
			c0.8-0.7,1.6-1.3,2.4-2c0.8-0.6,1.6-1.3,2.5-1.9c0,0,0.1,0,0.1,0C592.7,89.3,592.7,89.4,592.7,89.4z"/>
	</g>
	<g>
		<path class="st4" d="M611.9,95.8c-0.1,1-0.3,2.1-0.4,3.1c-0.1,1-0.3,2-0.5,3.1c-0.2,1-0.2,2.1-0.6,3c-0.4,1-0.9,1.9-1.7,2.7
			c0,0-0.1,0-0.2,0c0,0,0,0,0-0.1c-0.3-1.1-0.2-2.2-0.1-3.2c0.1-1,0.6-2,1-2.9c0.3-1,0.7-1.9,1.1-2.9c0.4-1,0.8-1.9,1.2-2.9
			c0-0.1,0.1-0.1,0.1-0.1C611.9,95.7,611.9,95.7,611.9,95.8z"/>
	</g>
	<g>
		<path class="st4" d="M574.5,76.5c-0.7,0.3-1.5,0.6-2.2,0.8c-0.7,0.3-1.5,0.5-2.2,0.7c-0.7,0.2-1.5,0.6-2.3,0.6
			c-0.8,0-1.6-0.1-2.5-0.4c-0.1,0-0.1-0.1-0.1-0.2c0,0,0,0,0,0c0.7-0.7,1.4-1,2.1-1.3c0.7-0.3,1.6-0.2,2.3-0.2
			c0.8-0.1,1.6-0.1,2.4-0.1c0.8,0,1.6-0.1,2.4,0C574.5,76.3,574.6,76.3,574.5,76.5C574.6,76.4,574.6,76.4,574.5,76.5z"/>
	</g>
	<g>
		<path class="st4" d="M598,41c-0.6-0.7-1.1-1.4-1.7-2.1c-0.5-0.7-1.1-1.4-1.6-2.1c-0.5-0.7-1.2-1.4-1.5-2.2
			c-0.3-0.8-0.6-1.7-0.5-2.7c0-0.1,0.1-0.1,0.1-0.1c0,0,0,0,0.1,0c0.9,0.5,1.5,1.2,2.1,1.8c0.6,0.7,0.8,1.6,1.2,2.4
			c0.4,0.8,0.7,1.6,1.1,2.4c0.3,0.8,0.7,1.7,1,2.5c0,0.1,0,0.1-0.1,0.1C598.1,41.1,598.1,41.1,598,41z"/>
	</g>
	<g>
		<path class="st4" d="M580.9,53.3c-0.8-0.3-1.6-0.7-2.5-1.1c-0.8-0.4-1.6-0.8-2.4-1.2c-0.8-0.4-1.7-0.7-2.3-1.3
			c-0.7-0.6-1.3-1.2-1.7-2.2c0-0.1,0-0.1,0.1-0.2c0,0,0,0,0.1,0c1,0,1.9,0.3,2.7,0.7c0.8,0.4,1.4,1.1,2.1,1.6
			c0.7,0.5,1.4,1.1,2.1,1.7c0.7,0.6,1.4,1.2,2,1.8c0,0,0,0.1,0,0.1C581,53.3,580.9,53.4,580.9,53.3z"/>
	</g>
	<text transform="matrix(1 0 0 1 597.826 71.2165)" class="st4 st1 st2">clear</text>
</g>
<g>
	<g>
		<line class="st5" x1="262.5" y1="69.5" x2="269.3" y2="69.5"/>
		<g>
			<polygon class="st4" points="267.9,74.5 276.5,69.5 267.9,64.5 			"/>
		</g>
	</g>
</g>
<g>
	<g>
		<line class="st5" x1="516.5" y1="69.5" x2="523.3" y2="69.5"/>
		<g>
			<polygon class="st4" points="521.9,74.5 530.5,69.5 521.9,64.5 			"/>
		</g>
	</g>
</g>
</svg>
