<?xml version="1.0" encoding="utf-8"?>
<!-- Generator: Adobe Illustrator 21.0.2, SVG Export Plug-In . SVG Version: 6.00 Build 0)  -->
<svg version="1.1" id="圖層_1" xmlns="http://www.w3.org/2000/svg" xmlns:xlink="http://www.w3.org/1999/xlink" x="0px" y="0px"
	 viewBox="0 0 150 150" style="enable-background:new 0 0 150 150;" xml:space="preserve">
<style type="text/css">
	.st0{fill:url(#XMLID_2_);}
</style>
<g>
	<linearGradient id="XMLID_2_" gradientUnits="userSpaceOnUse" x1="-7.141113e-02" y1="75.25" x2="149.9286" y2="75.25">
		<stop  offset="0" style="stop-color:#F7B52C"/>
		<stop  offset="0.5" style="stop-color:#E95513"/>
		<stop  offset="1" style="stop-color:#F7B52C"/>
	</linearGradient>
	<path id="XMLID_156_" class="st0" d="M13.3,82.1c0,1-0.1,2-0.3,2.8c-0.2,0.8-0.5,1.5-0.8,2.1c-0.3,0.6-0.7,1.1-1.2,1.5
		c-0.5,0.4-0.9,0.7-1.4,1s-1,0.4-1.5,0.5c-0.5,0.1-1,0.2-1.4,0.2c-0.9,0-1.7-0.2-2.4-0.5c-0.7-0.3-1.3-0.7-1.8-1.3h0v8.8h-2.4V74.7
		h1.9l0.5,1.7h0c0.1-0.2,0.3-0.4,0.5-0.6c0.2-0.2,0.5-0.4,0.9-0.6s0.8-0.4,1.3-0.6s1.1-0.3,1.7-0.3c0.8,0,1.7,0.1,2.5,0.4
		c0.8,0.3,1.5,0.7,2.1,1.4c0.6,0.6,1.1,1.4,1.5,2.4S13.3,80.7,13.3,82.1z M10.7,82.1c0-0.9-0.1-1.7-0.3-2.4
		c-0.2-0.7-0.5-1.3-0.8-1.8s-0.8-0.9-1.4-1.1c-0.5-0.3-1.2-0.4-1.9-0.4c-0.5,0-1,0.1-1.4,0.2c-0.4,0.1-0.8,0.3-1.1,0.5
		c-0.3,0.2-0.6,0.4-0.9,0.7c-0.2,0.2-0.4,0.5-0.6,0.7v7.9c0.5,0.5,1.1,0.9,1.8,1.3c0.7,0.3,1.4,0.5,2.2,0.5c0.5,0,1-0.1,1.5-0.3
		s1-0.5,1.4-0.9c0.4-0.5,0.8-1.1,1.1-1.8C10.6,84.3,10.7,83.3,10.7,82.1z M19.8,76.8L19.8,76.8c0.3-0.3,0.6-0.7,1-1s0.7-0.6,1.1-0.8
		c0.4-0.2,0.9-0.4,1.3-0.5c0.5-0.1,1-0.2,1.5-0.2c0.6,0,1.1,0.1,1.7,0.2c0.6,0.2,1.1,0.4,1.6,0.8c0.5,0.4,0.9,0.9,1.2,1.6
		c0.3,0.7,0.5,1.6,0.5,2.7v10.1h-2.5v-9.7c0-1.2-0.2-2.1-0.7-2.7c-0.5-0.6-1.2-0.9-2.3-0.9c-0.9,0-1.7,0.2-2.5,0.7
		c-0.8,0.5-1.5,1.1-2,1.9v10.7h-2.5v-23h2.5V76.8z M48,82.3c0,1.2-0.2,2.3-0.5,3.2c-0.3,1-0.8,1.8-1.4,2.5c-0.6,0.7-1.4,1.2-2.2,1.6
		c-0.9,0.4-1.9,0.6-3,0.6c-1.1,0-2.1-0.2-3-0.6c-0.9-0.4-1.6-0.9-2.3-1.6c-0.6-0.7-1.1-1.5-1.4-2.5s-0.5-2.1-0.5-3.2
		c0-1.2,0.2-2.3,0.5-3.3c0.3-1,0.8-1.8,1.4-2.5c0.6-0.7,1.4-1.2,2.3-1.6c0.9-0.4,1.9-0.6,3-0.6c1.1,0,2.1,0.2,3,0.6
		c0.9,0.4,1.6,0.9,2.3,1.6c0.6,0.7,1.1,1.5,1.4,2.5C47.8,80,48,81.1,48,82.3z M45.4,82.3c0-0.9-0.1-1.8-0.3-2.5
		c-0.2-0.7-0.5-1.3-1-1.8c-0.4-0.5-0.9-0.9-1.5-1.1c-0.6-0.3-1.2-0.4-1.8-0.4c-0.7,0-1.3,0.1-1.8,0.4c-0.6,0.3-1,0.6-1.5,1.1
		c-0.4,0.5-0.7,1.1-1,1.8c-0.2,0.7-0.3,1.6-0.3,2.5c0,0.9,0.1,1.7,0.3,2.5c0.2,0.7,0.5,1.3,1,1.8c0.4,0.5,0.9,0.9,1.5,1.1
		c0.6,0.3,1.2,0.4,1.8,0.4c0.7,0,1.3-0.1,1.8-0.4c0.6-0.3,1-0.6,1.4-1.1c0.4-0.5,0.7-1.1,1-1.8C45.3,84,45.4,83.2,45.4,82.3z
		 M103.1,82.5c0-1,0.1-2,0.3-2.8c0.2-0.8,0.5-1.5,0.8-2.1c0.3-0.6,0.7-1.1,1.2-1.5c0.5-0.4,0.9-0.7,1.4-1c0.5-0.3,1-0.4,1.5-0.5
		c0.5-0.1,1-0.2,1.4-0.2c0.9,0,1.7,0.2,2.4,0.5c0.7,0.3,1.3,0.8,1.8,1.4h0v-9.3h2.5v23h-1.9l-0.5-1.7h-0.1c-0.2,0.2-0.4,0.5-0.7,0.7
		s-0.6,0.5-0.9,0.7c-0.3,0.2-0.7,0.4-1.2,0.5s-1,0.2-1.6,0.2c-0.8,0-1.6-0.1-2.4-0.4c-0.8-0.3-1.5-0.7-2.1-1.4
		c-0.6-0.6-1.1-1.4-1.5-2.4C103.3,85.1,103.1,83.9,103.1,82.5z M105.7,82.4c0,0.9,0.1,1.7,0.3,2.4c0.2,0.7,0.5,1.3,0.9,1.8
		s0.8,0.9,1.4,1.1s1.2,0.4,1.9,0.4c0.5,0,1-0.1,1.4-0.2c0.4-0.1,0.8-0.3,1.1-0.5c0.3-0.2,0.6-0.4,0.9-0.7s0.4-0.5,0.6-0.7v-7.9
		c-0.5-0.5-1.1-0.9-1.8-1.2c-0.7-0.3-1.4-0.5-2.2-0.5c-0.5,0-1,0.1-1.5,0.3s-1,0.5-1.4,0.9c-0.4,0.5-0.8,1.1-1.1,1.8
		C105.8,80.2,105.7,81.2,105.7,82.4z M130.3,88.1L130.3,88.1c-0.3,0.3-0.5,0.5-0.8,0.8c-0.3,0.2-0.7,0.5-1.1,0.7s-0.8,0.4-1.3,0.5
		c-0.5,0.1-1,0.2-1.5,0.2c-0.7,0-1.4-0.1-2-0.3c-0.6-0.2-1.1-0.5-1.6-1s-0.8-0.9-1-1.5c-0.2-0.6-0.4-1.3-0.4-2c0-0.8,0.1-1.4,0.4-2
		c0.3-0.6,0.6-1.1,1.1-1.5s1.1-0.7,1.8-1s1.4-0.3,2.3-0.3c0.8,0,1.5,0.1,2.2,0.2c0.7,0.1,1.3,0.3,1.8,0.5h0.1v-1
		c0-0.4,0-0.8-0.1-1.1s-0.1-0.6-0.3-0.8c-0.3-0.5-0.7-0.9-1.3-1.3c-0.6-0.3-1.4-0.5-2.4-0.5c-0.8,0-1.5,0.1-2.2,0.2
		c-0.7,0.1-1.3,0.3-2,0.6v-2.1c0.3-0.1,0.6-0.2,0.9-0.4s0.7-0.2,1.1-0.3c0.4-0.1,0.8-0.1,1.2-0.2c0.4,0,0.8-0.1,1.3-0.1
		c1.5,0,2.8,0.3,3.7,0.8s1.7,1.3,2.1,2.1c0.2,0.3,0.3,0.7,0.3,1.1c0.1,0.4,0.1,0.9,0.1,1.3v10.1h-2.1L130.3,88.1z M130.1,83.2
		c-0.5-0.1-1-0.2-1.6-0.4c-0.6-0.1-1.3-0.2-2.1-0.2c-1,0-1.9,0.2-2.5,0.7s-0.9,1.1-0.9,2c0,0.5,0.1,0.9,0.2,1.2
		c0.1,0.3,0.3,0.6,0.6,0.9c0.3,0.2,0.6,0.4,0.9,0.5c0.4,0.1,0.7,0.2,1.1,0.2c0.5,0,1-0.1,1.5-0.2c0.5-0.2,0.9-0.3,1.2-0.5
		c0.4-0.2,0.7-0.4,0.9-0.6c0.2-0.2,0.4-0.4,0.5-0.5V83.2z M99.5,113.5L77.7,68.1h16.2c2.9,0,5.2-2.3,5.2-5.2V42.2
		c0-2.9-2.3-5.2-5.2-5.2H57.2c-2.9,0-5.2,2.3-5.2,5.2v20.7c0,2.9,2.3,5.2,5.2,5.2h16.2l-21.8,45.3h3l19.6-40.8v40.8h2.7V72.7
		l19.6,40.8H99.5z M54.7,62.9V42.2c0-1.4,1.1-2.5,2.5-2.5h36.7c1.4,0,2.5,1.1,2.5,2.5v20.7c0,1.4-1.1,2.5-2.5,2.5H57.2
		C55.8,65.4,54.7,64.3,54.7,62.9z M75.5,63.3c-5.9,0-10.7-4.8-10.7-10.7s4.8-10.7,10.7-10.7s10.7,4.8,10.7,10.7S81.4,63.3,75.5,63.3
		z M75.5,44.6c-4.4,0-8,3.6-8,8s3.6,8,8,8s8-3.6,8-8S79.9,44.6,75.5,44.6z M147.5,74.7v10.7c-0.6,0.8-1.2,1.5-2,1.9
		s-1.6,0.7-2.5,0.7c-1,0-1.8-0.3-2.3-0.9c-0.5-0.6-0.7-1.5-0.7-2.7v-9.7h-2.5v10.1c0,1.1,0.2,2,0.5,2.7c0.3,0.7,0.7,1.2,1.2,1.6
		s1,0.7,1.6,0.8c0.6,0.2,1.1,0.2,1.7,0.2c0.6,0,1.1-0.1,1.5-0.2s0.9-0.3,1.3-0.5s0.8-0.5,1.1-0.8s0.6-0.6,0.9-1h0v3.5v1.6
		c0,0.9-0.2,1.5-0.7,1.9c-0.4,0.4-1.2,0.6-2.2,0.6c-0.3,0-0.7,0-1-0.1c-0.3,0-0.6-0.1-1-0.2v2.1c0.2,0.1,0.5,0.1,0.9,0.2
		c0.4,0.1,0.9,0.1,1.3,0.1c1.7,0,3-0.4,3.8-1.2s1.2-1.9,1.2-3.2v-1.9V74.7H147.5z"/>
</g>
</svg>
