<?xml version="1.0" encoding="utf-8"?>
<!-- Generator: Adobe Illustrator 21.0.2, SVG Export Plug-In . SVG Version: 6.00 Build 0)  -->
<svg version="1.1" id="圖層_1" xmlns="http://www.w3.org/2000/svg" xmlns:xlink="http://www.w3.org/1999/xlink" x="0px" y="0px"
	 viewBox="0 0 150 150" style="enable-background:new 0 0 150 150;" xml:space="preserve">
<style type="text/css">
	.st0{fill:url(#XMLID_2_);}
	.st1{fill:url(#XMLID_3_);}
	.st2{fill:url(#XMLID_4_);}
	.st3{fill:url(#XMLID_5_);}
	.st4{fill:url(#XMLID_6_);}
	.st5{fill:url(#XMLID_7_);}
	.st6{fill:url(#XMLID_8_);}
	.st7{fill:url(#XMLID_9_);}
	.st8{fill:url(#XMLID_10_);}
	.st9{fill:url(#XMLID_11_);}
	.st10{fill:url(#XMLID_12_);}
	.st11{fill:url(#XMLID_13_);}
	.st12{fill:url(#XMLID_14_);}
</style>
<g>
	<linearGradient id="XMLID_2_" gradientUnits="userSpaceOnUse" x1="0" y1="69.0485" x2="150" y2="69.0485">
		<stop  offset="0" style="stop-color:#00BFBC"/>
		<stop  offset="1" style="stop-color:#AFFF00"/>
	</linearGradient>
	<path id="XMLID_437_" class="st0" d="M150,55.3V42.2c0-2-1.7-3.7-3.7-3.7h-16.7h-20.4v10.2c0-5.6-4.6-10.2-10.2-10.2
		c-5.2,0-9.5,4-10.1,9h-0.2c-0.6-5.1-4.8-9-10.1-9c-5.1,0-9.3,3.8-10,8.8h-0.1v-8.8H48.2v8.8h-0.1c-0.7-5.1-5.2-9-10.6-8.8
		c-5.2,0.3-9.5,4.6-9.6,9.8c-0.2,5.8,4.4,10.5,10.2,10.5c5.1,0,9.4-3.8,10-8.8h0.1v8.8H38.1H27.9h-2.5v-1H13.3v1H7.5v-1H0v22.4h7.5
		v-1h5.8v1h12.1v-1h2.5h10.2h10.2V88h-0.1c-0.7-5.1-5.2-9.1-10.6-8.8c-5.2,0.3-9.5,4.6-9.6,9.8c-0.2,5.8,4.4,10.5,10.2,10.5
		c5.1,0,9.3-3.8,10-8.8h0.1v8.8h20.4v-8.8h0.1c0.7,5,4.9,8.8,10,8.8c5.3,0,9.5-4,10.1-9.1H89c0.5,5.1,4.8,9.1,10.1,9.1
		c5.6,0,10.2-4.6,10.2-10.2v10.2h20.4h16.7c2,0,3.7-1.7,3.7-3.7V79.2V62.5h0L150,55.3L150,55.3z M126.1,55h7.2v7.6h-7.2V55z
		 M126.1,69h7.2v10.2h-7.2V69z M109.3,79.2v10.2c0-5.6-4.6-10.2-10.2-10.2c-5.3,0-9.5,4-10.1,9.1h-0.2c-0.5-5.1-4.8-9.1-10.1-9.1
		c-5.1,0-9.3,3.8-10,8.8h-0.1v-8.8v-8.8h0.1c0.7,5,4.9,8.8,10,8.8c5.3,0,9.5-4,10.1-9.1H89c0.5,5.1,4.8,9.1,10.1,9.1
		c5.6,0,10.2-4.6,10.2-10.2V79.2z M109.3,69c0-5.6-4.6-10.2-10.2-10.2c-5.3,0-9.5,4-10.1,9.1h-0.2c-0.5-5.1-4.8-9.1-10.1-9.1
		c-5.1,0-9.3,3.8-10,8.8h-0.1v-8.8v-8.8h0.1c0.7,5,4.9,8.8,10,8.8c5.3,0,9.6-4.1,10.1-9.2H89c0.5,5.2,4.8,9.2,10.1,9.2
		c5.6,0,10.2-4.6,10.2-10.2v6.6h6.8v7.2h-6.8V69z M123.1,79.2h-7.2V69h7.2V79.2z M134.7,93h-10.2v-7.2h10.2V93z M143.4,79.2h-7.2V69
		h7.2V79.2z M150,62.5h-6.8v-7.2h6.8V62.5z"/>
	<g id="XMLID_338_">
		<linearGradient id="XMLID_3_" gradientUnits="userSpaceOnUse" x1="28.1947" y1="106.4023" x2="37.4176" y2="106.4023">
			<stop  offset="0" style="stop-color:#00BFBC"/>
			<stop  offset="1" style="stop-color:#AFFF00"/>
		</linearGradient>
		<polygon id="XMLID_356_" class="st1" points="37.4,101.5 28.2,101.5 28.2,103.9 31.3,103.9 31.3,111.3 34.3,111.3 34.3,103.9 
			37.4,103.9 		"/>
		<linearGradient id="XMLID_4_" gradientUnits="userSpaceOnUse" x1="36.8777" y1="106.4023" x2="47.5684" y2="106.4023">
			<stop  offset="0" style="stop-color:#00BFBC"/>
			<stop  offset="1" style="stop-color:#AFFF00"/>
		</linearGradient>
		<path id="XMLID_353_" class="st2" d="M40.6,101.5l-3.7,9.8H40l0.5-1.6h3.4l0.5,1.6h3.2l-3.7-9.8H40.6z M41.1,107.6l1.1-3.5
			l1.1,3.5H41.1z"/>
		<linearGradient id="XMLID_5_" gradientUnits="userSpaceOnUse" x1="48.6553" y1="106.4023" x2="51.6961" y2="106.4023">
			<stop  offset="0" style="stop-color:#00BFBC"/>
			<stop  offset="1" style="stop-color:#AFFF00"/>
		</linearGradient>
		<rect id="XMLID_352_" x="48.7" y="101.5" class="st3" width="3" height="9.8"/>
		<linearGradient id="XMLID_6_" gradientUnits="userSpaceOnUse" x1="52.8601" y1="106.4023" x2="66.601" y2="106.4023">
			<stop  offset="0" style="stop-color:#00BFBC"/>
			<stop  offset="1" style="stop-color:#AFFF00"/>
		</linearGradient>
		<polygon id="XMLID_351_" class="st4" points="62.7,107 61.2,101.5 58.3,101.5 56.8,107 55.7,101.5 52.9,101.5 55,111.3 58,111.3 
			59.7,105.1 61.5,111.3 64.4,111.3 66.6,101.5 63.7,101.5 		"/>
		<linearGradient id="XMLID_7_" gradientUnits="userSpaceOnUse" x1="66.608" y1="106.4023" x2="77.2987" y2="106.4023">
			<stop  offset="0" style="stop-color:#00BFBC"/>
			<stop  offset="1" style="stop-color:#AFFF00"/>
		</linearGradient>
		<path id="XMLID_348_" class="st5" d="M70.3,101.5l-3.7,9.8h3.1l0.5-1.6h3.4l0.5,1.6h3.2l-3.7-9.8H70.3z M70.8,107.6l1.1-3.5
			l1.1,3.5H70.8z"/>
		<linearGradient id="XMLID_8_" gradientUnits="userSpaceOnUse" x1="78.2851" y1="106.4023" x2="87.6763" y2="106.4023">
			<stop  offset="0" style="stop-color:#00BFBC"/>
			<stop  offset="1" style="stop-color:#AFFF00"/>
		</linearGradient>
		<polygon id="XMLID_347_" class="st6" points="84.8,106.9 81.1,101.5 78.3,101.5 78.3,111.3 81.1,111.3 81.1,105.9 84.8,111.3 
			87.7,111.3 87.7,101.5 84.8,101.5 		"/>
		<linearGradient id="XMLID_9_" gradientUnits="userSpaceOnUse" x1="93.3021" y1="106.4023" x2="103.9485" y2="106.4023">
			<stop  offset="0" style="stop-color:#00BFBC"/>
			<stop  offset="1" style="stop-color:#AFFF00"/>
		</linearGradient>
		<polygon id="XMLID_346_" class="st7" points="98.7,108.6 96.5,101.5 93.3,101.5 97,111.3 100.3,111.3 103.9,101.5 100.9,101.5 		
			"/>
		<linearGradient id="XMLID_10_" gradientUnits="userSpaceOnUse" x1="105.061" y1="106.4023" x2="108.1018" y2="106.4023">
			<stop  offset="0" style="stop-color:#00BFBC"/>
			<stop  offset="1" style="stop-color:#AFFF00"/>
		</linearGradient>
		<rect id="XMLID_345_" x="105.1" y="101.5" class="st8" width="3" height="9.8"/>
		<linearGradient id="XMLID_11_" gradientUnits="userSpaceOnUse" x1="109.7496" y1="106.4023" x2="118.6593" y2="106.4023">
			<stop  offset="0" style="stop-color:#00BFBC"/>
			<stop  offset="1" style="stop-color:#AFFF00"/>
		</linearGradient>
		<path id="XMLID_344_" class="st9" d="M117,105.6c-0.6-0.3-1.5-0.6-2.9-0.9c-0.5-0.1-0.9-0.2-1-0.4c-0.1-0.1-0.2-0.3-0.2-0.4
			c0-0.2,0.1-0.4,0.3-0.5c0.2-0.1,0.4-0.2,0.8-0.2c0.4,0,0.8,0.1,1,0.3c0.2,0.2,0.4,0.5,0.5,1l2.9-0.2c-0.1-1-0.5-1.8-1.2-2.2
			c-0.7-0.5-1.6-0.7-2.9-0.7c-1,0-1.8,0.1-2.4,0.4c-0.6,0.3-1,0.6-1.3,1.1s-0.4,0.9-0.4,1.4c0,0.8,0.3,1.4,0.9,1.9
			c0.6,0.5,1.5,0.9,2.8,1.2c0.8,0.2,1.3,0.4,1.6,0.6c0.2,0.2,0.3,0.4,0.3,0.7c0,0.3-0.1,0.5-0.4,0.7s-0.6,0.3-1,0.3
			c-0.6,0-1-0.2-1.3-0.6c-0.2-0.2-0.3-0.6-0.4-1.1l-2.9,0.2c0.1,1,0.4,1.8,1.1,2.5s1.8,1,3.5,1c1,0,1.7-0.1,2.4-0.4
			c0.6-0.3,1.1-0.7,1.5-1.2c0.3-0.5,0.5-1.1,0.5-1.7c0-0.5-0.1-1-0.4-1.5C118,106.2,117.6,105.9,117,105.6z"/>
		<linearGradient id="XMLID_12_" gradientUnits="userSpaceOnUse" x1="120.1926" y1="106.4864" x2="129.6048" y2="106.4864">
			<stop  offset="0" style="stop-color:#00BFBC"/>
			<stop  offset="1" style="stop-color:#AFFF00"/>
		</linearGradient>
		<path id="XMLID_343_" class="st10" d="M126.6,107.5c0,0.5-0.1,1-0.4,1.3s-0.7,0.4-1.2,0.4c-0.5,0-0.9-0.1-1.2-0.5
			c-0.3-0.3-0.4-0.7-0.4-1.3v-6h-3v5.9c0,0.5,0.1,1,0.3,1.7c0.1,0.4,0.3,0.8,0.6,1.1c0.3,0.4,0.7,0.6,1,0.8c0.4,0.2,0.9,0.3,1.4,0.4
			c0.6,0.1,1.1,0.1,1.6,0.1c0.8,0,1.5-0.1,2.1-0.3c0.4-0.2,0.8-0.4,1.2-0.8c0.4-0.4,0.7-0.8,0.9-1.4c0.2-0.5,0.3-1.1,0.3-1.6v-5.9
			h-3V107.5z"/>
		<linearGradient id="XMLID_13_" gradientUnits="userSpaceOnUse" x1="130.1611" y1="106.4023" x2="140.8519" y2="106.4023">
			<stop  offset="0" style="stop-color:#00BFBC"/>
			<stop  offset="1" style="stop-color:#AFFF00"/>
		</linearGradient>
		<path id="XMLID_340_" class="st11" d="M133.9,101.5l-3.7,9.8h3.1l0.5-1.6h3.4l0.5,1.6h3.2l-3.7-9.8H133.9z M134.4,107.6l1.1-3.5
			l1.1,3.5H134.4z"/>
		<linearGradient id="XMLID_14_" gradientUnits="userSpaceOnUse" x1="141.8172" y1="106.4023" x2="149.5886" y2="106.4023">
			<stop  offset="0" style="stop-color:#00BFBC"/>
			<stop  offset="1" style="stop-color:#AFFF00"/>
		</linearGradient>
		<polygon id="XMLID_339_" class="st12" points="144.9,108.9 144.9,101.5 141.8,101.5 141.8,111.3 149.6,111.3 149.6,108.9 		"/>
	</g>
</g>
</svg>
